PathFileType  4	(X/Y/Z) C:\Users\antoi\Documents\MyRepositories\mobilecap\ResultsAnalysis
DataRate	CameraRate	NumFrames	NumMarkers	Units	OrigDataRate	OrigDataStartFrame	OrigNumFrames
100.0	100.0	4	51	mm	100.0	82	131
Frame#	Time	r_knee			r_shank_antsup			r_ankle			r_calc			r_5meta			r_toe			L_knee			L_shank_antsup			L_ankle			L_calc			L_5meta			L_toe			r_sh2			r_sh3			r_sh4			L_sh2			L_sh3			r_thigh1			r_thigh2			r_thigh3			r_thigh4			r_thigh5			L_thigh1			L_thigh2			L_thigh3			L_thigh4			r.ASIS			r.PSIS			L.ASIS			L.PSIS			C7			R_Shoulder			L_Shoulder			R_Sternum			L_Sternum			R_humerus			R_elbow_med			R_elbow_lat			R_forearm			R_wrist_radius			R_wrist_ulna			L_humerus			L_elbow_med			L_elbow_lat			L_forearm			L_wrist_radius			L_wrist_ulna			R_HJC			L_HJC			R_HJC_reg			L_HJC_reg			
		X1	Y1	Z1	X2	Y2	Z2	X3	Y3	Z3	X4	Y4	Z4	X5	Y5	Z5	X6	Y6	Z6	X7	Y7	Z7	X8	Y8	Z8	X9	Y9	Z9	X10	Y10	Z10	X11	Y11	Z11	X12	Y12	Z12	X13	Y13	Z13	X14	Y14	Z14	X15	Y15	Z15	X16	Y16	Z16	X17	Y17	Z17	X18	Y18	Z18	X19	Y19	Z19	X20	Y20	Z20	X21	Y21	Z21	X22	Y22	Z22	X23	Y23	Z23	X24	Y24	Z24	X25	Y25	Z25	X26	Y26	Z26	X27	Y27	Z27	X28	Y28	Z28	X29	Y29	Z29	X30	Y30	Z30	X31	Y31	Z31	X32	Y32	Z32	X33	Y33	Z33	X34	Y34	Z34	X35	Y35	Z35	X36	Y36	Z36	X37	Y37	Z37	X38	Y38	Z38	X39	Y39	Z39	X40	Y40	Z40	X41	Y41	Z41	X42	Y42	Z42	X43	Y43	Z43	X44	Y44	Z44	X45	Y45	Z45	X46	Y46	Z46	X47	Y47	Z47	X48	Y48	Z48	X49	Y49	Z49	X50	Y50	Z50	X51	Y51	Z51	

82	0.81000000	969.64075	504.64118	-53.74062	979.56137	438.10866	-63.56432	671.84902	247.18009	-95.19445	612.47603	262.38318	-153.31124	706.71137	111.13279	-46.68168	754.09461	96.18911	-97.37838	888.75700	489.13539	-341.54743	917.26138	400.90583	-345.63065	840.65144	90.90413	-279.14704	779.64151	59.65905	-224.87742	961.81869	40.54032	-300.59613	1006.19716	61.80068	-247.18589	897.26890	357.86532	-79.67272	926.22003	484.85676	-31.97852	842.56666	404.84170	-33.27402	829.78650	413.23866	-363.00132	819.99693	293.13274	-348.70885	963.83363	804.82342	-111.97738	1008.10849	703.21072	-102.55316	996.17168	678.05981	-40.29319	897.11314	779.51045	-23.55386	942.69721	675.73731	-17.33552	900.63657	815.56385	-379.44284	917.66790	675.21611	-379.19805	789.69960	801.55866	-384.63914	802.86819	667.06702	-362.94234	910.35255	955.10095	-81.68456	719.90317	988.14748	-158.18394	921.27468	949.69477	-316.83223	719.78236	993.88599	-257.74342	783.91832	1465.61357	-227.34304	824.02879	1435.70659	-61.91063	849.97088	1403.24605	-381.75250	888.17268	1364.37462	-197.72864	891.67952	1358.03292	-235.98878	810.60737	1201.59260	32.07744	746.39636	1111.20738	5.14927	781.95016	1114.04531	58.71185	864.59681	993.17969	58.89393	918.29099	904.01975	32.96821	889.71584	892.28874	68.36269	843.31889	1167.96771	-452.66977	798.43381	1062.71792	-401.74323	813.05624	1067.82010	-459.40921	898.90602	950.36979	-479.75284	960.76893	859.53600	-461.11987	922.22724	842.76738	-477.78455	836.63255	873.33211	-117.93270	830.21094	881.84061	-308.28783	846.57215	875.57893	-118.45600	846.38310	884.51985	-273.60528	
83	0.82000000	989.46007	509.05835	-55.10026	1001.51710	443.30438	-64.36759	701.97785	239.23548	-93.35313	640.85957	251.62390	-150.34650	744.55328	104.97778	-46.19851	792.02223	93.06726	-97.76115	891.29009	489.26334	-341.77875	918.65549	400.91006	-345.83652	840.68785	90.93993	-278.96691	779.76942	59.61550	-224.74721	961.81977	40.53777	-300.62809	1006.20246	61.72945	-247.20758	922.60531	359.88652	-79.85287	946.54012	487.73242	-32.26554	866.06921	404.29945	-32.96884	831.19329	413.89381	-362.79420	820.59536	293.93920	-348.54738	976.77491	809.69305	-112.39629	1023.76946	709.50629	-103.39420	1012.67493	683.88637	-41.06654	911.52396	783.25791	-23.56695	959.61043	680.67159	-17.67493	909.81243	815.45949	-379.38409	924.19295	674.92717	-378.77585	798.49015	803.59675	-384.35445	808.82144	668.81334	-362.60584	922.58350	957.93348	-82.75695	731.44533	990.25141	-157.72107	931.80599	950.85410	-317.95574	730.89740	995.35827	-257.34196	795.84778	1467.30337	-227.44779	835.79109	1437.17576	-61.92677	862.15691	1405.63208	-381.57584	899.91239	1366.35289	-197.71874	903.50261	1360.06995	-235.89202	818.84177	1202.80277	31.48519	753.29397	1113.92535	3.72327	788.32936	1115.74353	57.41487	865.53068	991.57533	59.68552	915.06604	899.52740	35.13230	885.47524	889.59383	70.63213	859.89589	1170.72359	-452.95008	816.84133	1064.26231	-402.65418	831.71186	1069.89237	-460.17617	922.00258	955.29695	-478.97525	987.02228	866.74446	-459.28745	949.13496	848.73682	-476.41223	848.74898	875.81943	-117.75207	840.79018	883.03347	-308.10641	858.40149	877.99457	-118.76552	857.54557	885.94759	-273.98522	
84	0.83000000	1008.58925	513.05380	-56.48538	1023.11476	448.17886	-65.32705	732.89349	230.38399	-91.53086	670.10380	239.72398	-147.30238	783.51287	98.42322	-45.92657	830.84183	89.67322	-98.38358	893.75473	489.36338	-342.09107	919.98235	400.89042	-346.14102	840.69383	91.02661	-278.81509	779.90274	59.52927	-224.59092	961.82557	40.53896	-300.66165	1006.21998	61.65525	-247.23394	947.87815	361.51006	-80.14393	966.49771	489.91012	-32.38874	889.63072	402.99211	-32.57640	832.52018	414.54868	-362.59395	821.09544	294.77407	-348.40461	989.52379	814.03615	-112.90924	1039.14343	715.26471	-104.33485	1028.89584	689.26371	-41.91646	925.86004	786.78384	-23.50924	976.26614	685.27450	-18.00719	918.86906	815.22058	-379.31852	930.60409	674.51563	-378.39772	807.21783	805.49034	-383.96706	814.76187	670.48294	-362.17515	934.76499	960.40450	-83.70362	742.97456	992.05832	-157.22189	942.32257	951.67219	-318.99391	742.02732	996.64960	-256.88187	807.74815	1468.73037	-227.49531	847.71667	1438.29906	-61.89223	874.31173	1407.74867	-381.38279	911.65104	1368.05733	-197.77306	915.32988	1361.86525	-235.85419	827.20513	1203.75138	30.97517	760.29681	1116.39454	2.39846	794.78880	1117.25793	56.21807	866.50901	990.17146	60.63484	911.90596	895.55082	37.47869	881.46326	887.40488	72.87301	876.23804	1173.29961	-453.27679	835.23365	1065.62900	-403.51261	850.25013	1071.81280	-460.89588	944.84829	960.26157	-478.19743	1012.85429	874.22817	-457.32081	975.76818	854.90040	-474.95904	860.78084	877.98362	-117.52264	851.33881	883.95429	-307.85750	870.19057	879.93269	-119.06519	868.71179	887.08380	-274.37964	
85	0.84000000	1027.00900	516.63122	-57.75784	1044.32687	452.73088	-66.41337	764.62226	220.79243	-89.75594	700.30605	226.86476	-144.24982	823.50000	91.70531	-45.82055	870.44369	86.18129	-99.16125	896.21583	489.43614	-342.46434	921.35380	400.84629	-346.50222	840.68219	91.17899	-278.70673	780.03468	59.40548	-224.41513	961.83785	40.54337	-300.69422	1006.24985	61.56999	-247.26339	973.04901	362.76586	-80.55354	986.08949	491.41218	-32.35566	913.38048	400.97750	-32.10856	833.89933	415.18138	-362.45967	821.63404	295.60062	-348.32505	1002.12774	817.83070	-113.54748	1054.20162	720.40877	-105.39465	1044.84734	694.13672	-42.84986	940.20835	790.05740	-23.40970	992.65171	689.46276	-18.31404	927.81126	814.86872	-379.22266	936.94364	673.98330	-378.05584	815.91164	807.22060	-383.49470	820.76717	672.06391	-361.68251	946.87997	962.48822	-84.51106	754.49765	993.55611	-156.70911	952.84696	952.14498	-319.89133	753.16903	997.76497	-256.39473	819.63432	1469.88570	-227.48432	859.78182	1439.06883	-61.80052	886.44924	1409.55972	-381.17071	923.39855	1369.44480	-197.86658	927.16303	1363.37421	-235.85739	835.72302	1204.41737	30.53996	767.41510	1118.59454	1.20374	801.36216	1118.57564	55.12981	867.59953	988.94353	61.73399	908.87968	892.04655	39.99482	877.72635	885.66960	75.09804	892.37297	1175.65756	-453.64105	853.50303	1066.82543	-404.34815	868.69866	1073.52699	-461.57418	967.42460	965.21045	-477.42327	1038.20178	881.94143	-455.19604	1002.11386	861.21046	-473.43413	872.70384	879.80668	-117.24395	861.87865	884.60213	-307.54274	881.94810	881.37954	-119.33755	879.87464	887.93826	-274.74492	
